<?xml version="1.0" standalone="no"?>
<!DOCTYPE svg PUBLIC "-//W3C//DTD SVG 20010904//EN"
 "http://www.w3.org/TR/2001/REC-SVG-20010904/DTD/svg10.dtd">
<svg version="1.0" xmlns="http://www.w3.org/2000/svg"
 width="165.000000pt" height="165.000000pt" viewBox="0 0 165.000000 165.000000"
 preserveAspectRatio="xMidYMid meet">

<g transform="translate(0.000000,165.000000) scale(0.100000,-0.100000)"
fill="#000000" stroke="none">
<path d="M757 1523 c-4 -3 -7 -14 -7 -23 0 -11 -11 -20 -31 -24 -22 -4 -30
-11 -27 -23 4 -23 52 -28 107 -13 33 9 41 15 41 35 0 13 -7 31 -16 39 -16 16
-55 22 -67 9z"/>
<path d="M801 1380 c-32 -4 -56 -11 -59 -19 -5 -16 -35 -47 -51 -52 -6 -2 -13
-14 -16 -27 -2 -13 -10 -35 -17 -50 -14 -27 -13 -27 22 -31 66 -7 205 -6 246
1 29 6 46 4 59 -6 18 -13 17 -15 -20 -26 -22 -6 -87 -14 -145 -17 -91 -4 -110
-2 -143 15 -22 12 -33 15 -27 7 6 -8 20 -55 30 -105 21 -103 39 -137 76 -146
29 -7 170 0 196 11 16 6 60 130 74 210 3 22 11 46 16 52 18 22 0 60 -35 76
-18 9 -48 31 -67 49 -59 56 -79 64 -139 58z m49 -25 c0 -11 -12 -15 -50 -15
-78 0 -62 26 18 29 22 1 32 -4 32 -14z m50 -5 c12 -8 9 -10 -13 -10 -16 0 -26
4 -22 10 8 12 16 12 35 0z m-12 -29 c26 -16 -13 -29 -105 -33 -51 -2 -93 -1
-93 2 0 15 54 30 89 24 22 -3 47 -1 57 5 23 13 35 13 52 2z m67 -21 c4 -6 -5
-10 -20 -10 -15 0 -24 4 -20 10 3 6 12 10 20 10 8 0 17 -4 20 -10z m19 -38
c13 -22 -19 -28 -156 -27 -235 0 -168 25 89 33 34 1 64 -2 67 -6z m51 -16 c20
-14 15 -46 -7 -46 -25 0 -37 16 -31 38 6 26 12 27 38 8z m-165 -37 c-30 -4
-80 -4 -110 1 -47 6 -39 8 55 8 94 0 102 -2 55 -9z m129 -144 c-12 -42 -24
-74 -26 -72 -7 8 21 162 31 169 20 13 18 -21 -5 -97z m-29 53 c-1 -38 -25
-156 -34 -165 -15 -16 -16 10 -1 71 8 37 15 80 15 97 0 16 5 29 10 29 6 0 10
-15 10 -32z m-236 -59 c4 -45 5 -84 2 -86 -5 -6 -22 53 -35 121 -7 40 -6 46 9
46 14 0 18 -14 24 -81z m145 2 c-7 -85 -16 -121 -29 -121 -7 0 -3 160 5 188 3
6 10 12 18 12 10 0 11 -17 6 -79z m51 51 c0 -32 -26 -161 -34 -170 -13 -13
-15 8 -6 58 5 29 10 72 10 96 0 32 4 44 15 44 10 0 15 -10 15 -28z m-150 -77
c0 -103 -13 -127 -24 -42 -11 91 -8 137 9 137 12 0 15 -17 15 -95z m49 -2 c-8
-113 -6 -103 -19 -103 -6 0 -10 40 -10 100 0 89 2 100 18 100 15 0 16 -9 11
-97z m138 -75 c-3 -8 -6 -5 -6 6 -1 11 2 17 5 13 3 -3 4 -12 1 -19z"/>
<path d="M90 800 c0 -107 4 -170 10 -170 6 0 10 53 10 140 0 77 3 140 8 140 4
0 29 -28 57 -61 l49 -62 48 54 c26 30 48 57 48 62 0 4 5 7 10 7 6 0 10 -54 10
-141 0 -108 3 -140 13 -137 16 6 23 316 7 332 -8 8 -20 0 -43 -29 -18 -22 -46
-55 -62 -74 l-31 -33 -58 71 c-32 39 -62 71 -67 71 -5 0 -9 -76 -9 -170z"/>
<path d="M1510 895 c0 -8 5 -15 10 -15 6 0 10 7 10 15 0 8 -4 15 -10 15 -5 0
-10 -7 -10 -15z"/>
<path d="M1580 895 c0 -8 5 -15 10 -15 6 0 10 7 10 15 0 8 -4 15 -10 15 -5 0
-10 -7 -10 -15z"/>
<path d="M701 852 c-7 -5 -22 -7 -32 -5 -18 5 -19 -2 -19 -107 0 -85 3 -111
13 -108 8 3 13 32 15 88 2 46 8 90 14 97 16 20 75 16 98 -7 17 -17 20 -33 20
-101 0 -60 3 -80 13 -76 8 3 12 30 12 90 0 75 -3 89 -21 107 -23 23 -91 36
-113 22z"/>
<path d="M933 840 c-40 -24 -53 -48 -53 -100 0 -34 6 -48 34 -76 28 -28 41
-34 78 -34 24 0 53 7 65 15 19 13 22 13 27 0 3 -8 10 -15 16 -15 6 0 10 41 10
110 0 91 -3 110 -15 110 -8 0 -15 -7 -15 -16 0 -13 -5 -12 -26 5 -33 26 -80
27 -121 1z m122 -36 c35 -38 34 -87 -4 -125 -16 -16 -39 -29 -50 -29 -82 0
-124 98 -66 155 34 35 88 34 120 -1z"/>
<path d="M1211 851 c-7 -5 -22 -6 -32 -4 -18 5 -19 -2 -19 -107 0 -85 3 -111
13 -108 8 3 13 32 15 88 3 89 12 110 46 110 43 0 51 -15 56 -106 3 -57 9 -89
18 -92 9 -3 12 17 12 78 0 97 10 120 50 120 45 0 60 -31 60 -122 0 -45 4 -78
10 -78 6 0 10 38 10 94 0 90 -1 96 -26 115 -32 25 -71 27 -95 5 -16 -15 -20
-15 -41 0 -25 18 -56 20 -77 7z"/>
<path d="M420 762 c0 -80 2 -91 23 -110 30 -28 95 -30 128 -3 21 17 24 29 27
110 3 78 2 91 -12 91 -13 0 -16 -13 -16 -80 0 -67 -3 -83 -20 -100 -25 -25
-51 -25 -81 -1 -21 17 -24 30 -27 100 -2 45 -8 81 -13 81 -5 0 -9 -40 -9 -88z"/>
<path d="M1502 743 c2 -74 7 -108 16 -111 9 -3 12 23 12 107 0 93 -2 111 -15
111 -13 0 -15 -16 -13 -107z"/>
<path d="M1580 739 c0 -84 3 -110 13 -107 8 3 13 37 15 111 2 91 0 107 -13
107 -13 0 -15 -18 -15 -111z"/>
</g>
</svg>
