<?xml version="1.0" standalone="no"?>
<!DOCTYPE svg PUBLIC "-//W3C//DTD SVG 20010904//EN"
 "http://www.w3.org/TR/2001/REC-SVG-20010904/DTD/svg10.dtd">
<svg version="1.0" xmlns="http://www.w3.org/2000/svg"
 width="600.000000pt" height="600.000000pt" viewBox="0 0 600.000000 600.000000"
 preserveAspectRatio="xMidYMid meet">

<g transform="translate(0.000000,600.000000) scale(0.100000,-0.100000)"
fill="#000000" stroke="none">
<path d="M2770 5552 c-19 -9 -41 -30 -49 -47 -12 -26 -12 -35 1 -71 l15 -42
-66 -4 c-171 -12 -241 -115 -121 -175 53 -28 132 -30 247 -8 43 8 107 15 142
15 53 0 62 2 57 16 -7 17 17 58 27 47 4 -3 7 -28 7 -55 0 -33 10 -72 30 -118
17 -38 30 -73 30 -78 0 -5 -49 -9 -117 -9 -152 1 -212 -14 -265 -64 -38 -36
-40 -42 -35 -79 4 -33 2 -42 -11 -46 -10 -3 -45 -17 -79 -31 -100 -40 -162
-126 -118 -163 12 -10 10 -16 -16 -43 -35 -38 -49 -83 -37 -117 8 -21 6 -28
-13 -40 -51 -35 -79 -69 -79 -97 0 -36 30 -85 69 -114 21 -16 31 -31 31 -50 0
-88 75 -439 131 -614 44 -140 60 -159 155 -195 70 -26 242 -43 349 -35 148 11
448 66 461 83 7 9 22 52 34 95 12 44 48 163 81 266 79 243 101 339 101 434 l1
78 42 35 c71 58 81 110 34 188 -25 43 -85 87 -158 115 -32 13 -73 42 -112 81
-35 35 -85 72 -119 88 -50 23 -60 32 -65 58 -11 62 -74 112 -183 145 -40 12
-46 18 -80 88 -35 74 -36 79 -37 201 -2 139 -13 184 -53 223 -58 56 -163 74
-232 39z m333 -581 c7 -7 8 -23 1 -48 l-9 -38 -125 -7 c-69 -4 -149 -12 -178
-16 -60 -10 -75 0 -70 45 4 35 49 59 134 73 74 11 232 6 247 -9z m111 -22 c53
-19 106 -66 106 -93 0 -11 -11 -11 -57 0 -32 8 -75 14 -97 14 -38 0 -38 1 -32
31 3 17 6 40 6 50 0 24 7 24 74 -2z m-197 -120 c-27 -16 -127 -23 -183 -14
-47 8 -48 9 -19 16 17 3 73 7 125 8 72 0 91 -2 77 -10z m188 -4 c48 -9 92 -18
97 -21 13 -8 -28 -55 -74 -86 -41 -28 -43 -28 -202 -28 -185 0 -370 -14 -448
-35 -56 -14 -78 -8 -78 24 0 23 35 54 95 84 92 45 118 50 176 33 60 -18 196
-21 251 -6 20 6 47 19 60 30 28 24 17 23 123 5z m209 -61 c53 -26 92 -57 106
-85 8 -13 2 -14 -43 -8 -29 4 -89 8 -134 8 -46 1 -83 2 -83 4 0 4 94 106 99
107 1 0 26 -12 55 -26z m-397 -120 c-3 -3 -12 -4 -19 -1 -8 3 -5 6 6 6 11 1
17 -2 13 -5z m443 -15 c46 -6 88 -16 93 -22 13 -20 -1 -78 -25 -104 -44 -48
-70 -55 -140 -38 -126 28 -285 38 -533 32 -140 -4 -271 -13 -315 -21 -69 -13
-76 -13 -88 2 -17 23 -7 61 27 95 27 28 28 28 92 18 142 -23 402 -7 536 33 84
25 170 27 353 5z m-545 1 c-27 -5 -106 -8 -175 -8 -90 1 -111 3 -75 8 74 10
315 10 250 0z m760 -54 c64 -29 115 -86 115 -127 0 -39 -23 -82 -54 -103 -34
-22 -40 -21 -92 15 -25 17 -65 40 -91 51 l-46 20 32 25 c38 30 61 72 61 113 0
36 9 37 75 6z m-421 -127 c135 -17 144 -23 56 -42 -165 -36 -384 -46 -584 -27
-119 12 -225 39 -203 52 45 25 566 37 731 17z m-763 -53 c85 -46 184 -61 404
-60 216 1 401 21 506 53 l62 20 59 -24 c32 -13 77 -37 100 -54 l40 -30 -38
-16 c-152 -64 -437 -115 -684 -122 -233 -6 -359 10 -466 61 -68 33 -134 92
-134 120 0 21 53 59 106 76 1 0 21 -11 45 -24z m1182 -166 c11 -43 -15 -164
-76 -355 -36 -110 -77 -245 -92 -300 -27 -97 -39 -124 -50 -113 -3 3 8 65 25
139 62 270 100 589 71 589 -39 0 -48 -18 -55 -111 -12 -153 -101 -609 -124
-630 -4 -4 -21 -10 -38 -13 l-30 -7 43 208 c54 257 60 293 67 416 l6 98 -28
-3 -27 -3 -7 -110 c-3 -63 -15 -142 -28 -184 -11 -41 -37 -151 -56 -245 -19
-94 -38 -174 -42 -178 -4 -4 -23 -11 -41 -14 -30 -6 -33 -5 -27 12 11 38 55
321 66 423 5 57 10 144 10 193 0 78 -2 89 -16 84 -9 -3 -21 -6 -28 -6 -9 0
-15 -35 -19 -127 -6 -134 -36 -358 -65 -503 l-18 -85 -38 -3 -39 -3 7 43 c3
24 11 160 16 303 6 143 14 280 20 305 13 63 13 62 -22 58 -31 -3 -33 -6 -40
-48 -4 -25 -12 -162 -18 -305 -6 -143 -15 -280 -20 -305 -5 -25 -9 -48 -10
-52 0 -5 -13 -8 -29 -8 -58 0 -59 0 -53 128 2 65 1 225 -3 355 l-7 237 -30 0
-29 0 7 -293 c4 -160 4 -318 0 -350 -7 -50 -10 -57 -29 -57 -12 0 -27 4 -33 8
-12 7 -61 471 -66 622 l-3 85 180 1 c252 2 540 43 730 103 78 25 82 25 88 1z
m-1083 -86 c30 -7 47 -13 37 -13 -17 -1 -18 -9 -12 -103 4 -57 15 -196 26
-311 22 -238 22 -250 10 -242 -22 13 -118 371 -151 562 -25 145 -25 137 8 128
15 -5 52 -14 82 -21z"/>
<path d="M326 3514 c-14 -14 -16 -82 -16 -603 0 -443 3 -590 12 -599 20 -20
76 -15 88 7 6 13 10 191 10 510 0 282 4 491 9 491 5 0 87 -96 182 -212 95
-117 178 -216 183 -220 26 -18 56 -6 93 36 21 24 101 123 178 219 77 97 145
175 150 173 6 -2 11 -178 13 -496 1 -344 6 -497 13 -507 18 -20 76 -17 89 6 6
13 10 219 10 600 0 634 2 611 -57 611 -30 0 -21 9 -266 -285 -100 -121 -187
-220 -193 -220 -7 0 -103 110 -215 245 -111 135 -207 248 -213 252 -19 13 -54
9 -70 -8z"/>
<path d="M5470 3250 l0 -50 50 0 50 0 0 50 0 50 -50 0 -50 0 0 -50z"/>
<path d="M5740 3250 l0 -50 50 0 50 0 0 50 0 50 -50 0 -50 0 0 -50z"/>
<path d="M2645 3125 c-5 -2 -26 -6 -46 -9 -20 -4 -56 -20 -80 -36 -49 -33 -59
-36 -59 -17 0 19 -33 47 -53 47 -9 0 -26 -9 -37 -20 -19 -19 -20 -33 -20 -383
0 -312 2 -366 16 -385 17 -24 65 -30 82 -9 6 7 12 119 14 292 3 277 3 280 28
324 36 64 98 94 193 94 112 1 182 -39 230 -128 21 -38 22 -56 25 -305 2 -165
7 -270 14 -277 18 -23 66 -15 84 12 14 22 16 56 12 288 -4 237 -7 267 -26 317
-39 99 -127 167 -247 189 -57 11 -109 13 -130 6z"/>
<path d="M3515 3116 c-171 -43 -297 -180 -324 -356 -17 -104 6 -206 67 -298
133 -203 429 -249 617 -97 58 48 65 45 65 -21 0 -44 38 -64 76 -39 l24 15 0
379 c0 367 -1 378 -20 396 -16 15 -26 17 -48 9 -23 -8 -28 -17 -32 -56 -3 -26
-8 -50 -11 -53 -3 -3 -23 11 -45 32 -90 84 -240 121 -369 89z m168 -101 c71
-18 123 -51 170 -106 109 -127 101 -323 -19 -441 -84 -84 -220 -112 -336 -68
-214 80 -272 366 -108 530 46 46 105 78 163 90 61 12 67 11 130 -5z"/>
<path d="M4436 3116 c-21 -8 -53 -28 -70 -45 -39 -37 -46 -38 -46 -6 0 43 -56
59 -90 25 -19 -19 -20 -33 -20 -386 0 -233 4 -372 10 -385 12 -22 71 -27 88
-6 7 8 12 118 14 297 3 274 4 287 26 327 26 49 55 71 112 84 79 18 167 -25
210 -101 25 -44 25 -48 28 -320 2 -172 7 -279 14 -287 17 -21 76 -16 88 6 6
12 10 124 10 293 0 264 1 275 23 318 26 52 59 78 113 90 81 19 187 -37 220
-117 11 -24 14 -97 14 -298 0 -165 4 -274 10 -286 13 -23 71 -26 89 -5 9 11
11 95 9 313 l-3 298 -30 54 c-64 117 -215 176 -351 136 -46 -13 -69 -27 -107
-66 l-47 -49 -38 42 c-20 22 -56 50 -79 60 -57 25 -148 32 -197 14z"/>
<path d="M1532 3094 c-22 -15 -22 -17 -22 -287 1 -295 6 -330 61 -412 97 -143
387 -162 519 -34 81 79 85 94 88 425 3 258 1 293 -13 308 -18 18 -43 20 -65 6
-13 -8 -16 -54 -20 -282 l-5 -273 -30 -54 c-41 -74 -105 -111 -193 -111 -106
0 -166 36 -208 125 -23 48 -24 58 -24 308 0 244 -1 258 -20 277 -24 24 -38 25
-68 4z"/>
<path d="M5480 3090 c-19 -19 -20 -33 -20 -386 0 -233 4 -372 10 -385 7 -13
21 -19 45 -19 24 0 38 6 45 19 6 13 10 152 10 385 0 353 -1 367 -20 386 -11
11 -27 20 -35 20 -8 0 -24 -9 -35 -20z"/>
<path d="M5762 3094 l-22 -15 0 -378 c0 -280 3 -380 12 -389 20 -20 76 -15 88
7 6 13 10 152 10 385 0 353 -1 367 -20 386 -24 24 -38 25 -68 4z"/>
</g>
</svg>
